<svg id="Layer_1" data-name="Layer 1" xmlns="http://www.w3.org/2000/svg" viewBox="0 0 119.71 97.79"><defs><style>.cls-1{fill:#fcddde;}</style></defs><title>Navodnici BLOG</title><path class="cls-1" d="M44.89.11l4.79,4.78a15.56,15.56,0,0,1,4.78,11.4V49a48.69,48.69,0,0,1-4.61,20,56,56,0,0,1-13,18.1A43.46,43.46,0,0,1,17.75,97.72a4.42,4.42,0,0,1-1.39.17,5.54,5.54,0,0,1-3.66-1.3A4.78,4.78,0,0,1,11,93.2a5.59,5.59,0,0,1,1-3.74,5.24,5.24,0,0,1,3-2.18A40.31,40.31,0,0,0,33.58,74.75,41.64,41.64,0,0,0,43,54.39H16.36A15.73,15.73,0,0,1,4.79,49.61,15.73,15.73,0,0,1,0,38V16.46A15.73,15.73,0,0,1,4.79,4.89,15.73,15.73,0,0,1,16.36.11H44.89ZM11,40.3,12.53,42a5,5,0,0,0,3.83,1.66H43.5V16.46a5.48,5.48,0,0,0-1.57-3.91,5.07,5.07,0,0,0-3.82-1.66H16.36a5.36,5.36,0,0,0-5.4,5.4v24ZM110.14.11l4.79,4.78a15.56,15.56,0,0,1,4.78,11.4V49a48.69,48.69,0,0,1-4.61,20,56,56,0,0,1-13,18.1A43.46,43.46,0,0,1,83,97.72a4.42,4.42,0,0,1-1.39.17A5.54,5.54,0,0,1,78,96.59a4.78,4.78,0,0,1-1.74-3.39,5.59,5.59,0,0,1,1-3.74,5.24,5.24,0,0,1,3-2.18A40.31,40.31,0,0,0,98.83,74.75a41.64,41.64,0,0,0,9.4-20.36H81.61A16.34,16.34,0,0,1,65.25,38V16.46A15.73,15.73,0,0,1,70,4.89,15.73,15.73,0,0,1,81.61.11h28.53ZM76.21,40.3,77.78,42a5,5,0,0,0,3.83,1.66h27.14V16.46a5.48,5.48,0,0,0-1.57-3.91,5.07,5.07,0,0,0-3.82-1.66H81.61a5.36,5.36,0,0,0-5.4,5.4v24Z" transform="translate(0 -0.11)"/></svg>