<svg id="Layer_1" data-name="Layer 1" xmlns="http://www.w3.org/2000/svg" viewBox="0 0 101.8 101.8"><defs><style>.cls-1{fill:#cce5f7;}</style></defs><title>Link BLOG</title><path class="cls-1" d="M33.66,98.74l-4,1.58a21.73,21.73,0,0,1-8.06,1.58A21.64,21.64,0,0,1,1.73,88.54,21.25,21.25,0,0,1,.1,80.48a21.6,21.6,0,0,1,1.58-8.11,20.84,20.84,0,0,1,4.64-7L29.89,41.72a21.48,21.48,0,0,1,30.39,0A4.44,4.44,0,0,1,61.61,45a4.73,4.73,0,0,1-1.43,3.47,4.44,4.44,0,0,1-3.26,1.33,4.57,4.57,0,0,1-3.37-1.33,11.73,11.73,0,0,0-8.47-3.37,12.18,12.18,0,0,0-8.46,3.37L13.06,72.11a11.76,11.76,0,0,0-2.35,12.7,12.91,12.91,0,0,0,2.55,3.93,12.91,12.91,0,0,0,3.93,2.55,11.76,11.76,0,0,0,12.7-2.35L46.41,72.42A4.73,4.73,0,0,1,49.88,71a6,6,0,0,1,1.22.1,4.65,4.65,0,0,1,3.37,3.47,6.11,6.11,0,0,1,.2,1.33,4.46,4.46,0,0,1-1.43,3.26L36.62,95.68h.1ZM61.2,66.61,65.13,65a21.35,21.35,0,0,0,7-4.69L95.68,36.62a20.84,20.84,0,0,0,4.64-7,21.6,21.6,0,0,0,1.58-8.11A21.63,21.63,0,0,0,88.53,1.73a21.17,21.17,0,0,0-8-1.63,21.6,21.6,0,0,0-8.11,1.58,20.84,20.84,0,0,0-7,4.64L48.76,22.85a4.46,4.46,0,0,0-1.43,3.26,5.55,5.55,0,0,0,.2,1.33,4.65,4.65,0,0,0,3.37,3.47,6,6,0,0,0,1.22.1,4.73,4.73,0,0,0,3.47-1.43L72.11,13.06A10.25,10.25,0,0,1,76,10.3a12.69,12.69,0,0,1,4.74-.92,14.36,14.36,0,0,1,3,.31,11.88,11.88,0,0,1,8.57,8.57,10.08,10.08,0,0,1,.41,3,12.18,12.18,0,0,1-1,4.74,10.83,10.83,0,0,1-2.81,3.93L65.38,53.55a12.32,12.32,0,0,1-16.93,0A4.73,4.73,0,0,0,45,52.12a5.36,5.36,0,0,0-1.12.1,4.57,4.57,0,0,0-2.24,1.23,4.5,4.5,0,0,0-1.23,2.14,5.32,5.32,0,0,0-.1,1.22,4.68,4.68,0,0,0,1.43,3.47A20.06,20.06,0,0,0,48.65,65a21.59,21.59,0,0,0,8.27,1.64Z" transform="translate(-0.1 -0.1)"/></svg>